# Exported from Wings 3D 2.1.5
mtllib chess_and_checkers_board_elements.mtl
o board_edge_A
#16 vertices, 11 faces
v -0.50000000 0.0000000e+0 -0.50000000
v -0.50000000 0.0000000e+0 0.50000000
v -0.50000000 0.80000000 -0.50000000
v 0.50000000 0.0000000e+0 0.50000000
v 0.50000000 0.0000000e+0 -0.50000000
v 0.50000000 0.80000000 -0.50000000
v -0.50000000 0.68588485 0.50000000
v -0.50000000 0.80000000 0.23670929
v 0.50000000 0.68588485 0.50000000
v 0.50000000 0.80000000 0.23670929
v 0.50000000 0.73886677 0.37049512
v -0.50000000 0.73886677 0.37049512
v 0.50000000 0.73886677 0.23670929
v 0.50000000 0.68588485 0.37049512
v -0.50000000 0.73886677 0.23670929
v -0.50000000 0.68588485 0.37049512
vt 0.68518307 0.47997489
vt 0.68518307 0.48271193
vt 0.68518307 0.48587008
vt 0.68518307 0.48587008
vt 0.68518307 0.44454208
vt 0.72618307 0.47997489
vt 0.72618307 0.48271193
vt 0.72618307 0.48271193
vt 0.72618307 0.48587008
vt 0.72618307 0.48587008
vt 0.72618307 0.44454208
vn 0.0000000e+0 -1.00000000 0.0000000e+0
vn 0.0000000e+0 0.0000000e+0 -1.00000000
vn -1.00000000 0.0000000e+0 0.0000000e+0
vn 0.0000000e+0 -1.00000000 0.0000000e+0
vn 0.0000000e+0 0.0000000e+0 1.00000000
vn -1.00000000 0.0000000e+0 0.0000000e+0
vn 0.0000000e+0 0.0000000e+0 -1.00000000
vn 0.0000000e+0 1.00000000 0.0000000e+0
vn -1.00000000 0.0000000e+0 0.0000000e+0
vn 1.00000000 0.0000000e+0 0.0000000e+0
vn 0.0000000e+0 -1.00000000 0.0000000e+0
vn 0.0000000e+0 0.0000000e+0 1.00000000
vn 1.00000000 0.0000000e+0 0.0000000e+0
vn 0.0000000e+0 -1.00000000 0.0000000e+0
vn 0.0000000e+0 0.0000000e+0 -1.00000000
vn 1.00000000 0.0000000e+0 0.0000000e+0
vn 0.0000000e+0 0.0000000e+0 -1.00000000
vn 0.0000000e+0 1.00000000 0.0000000e+0
vn 0.0000000e+0 0.0000000e+0 1.00000000
vn 0.0000000e+0 1.00000000 0.0000000e+0
vn -1.00000000 0.0000000e+0 0.0000000e+0
vn 0.0000000e+0 1.00000000 0.0000000e+0
vn 0.0000000e+0 0.0000000e+0 1.00000000
vn -1.00000000 0.0000000e+0 0.0000000e+0
vn 1.00000000 0.0000000e+0 0.0000000e+0
vn 0.0000000e+0 0.0000000e+0 1.00000000
vn 0.0000000e+0 1.00000000 0.0000000e+0
vn 1.00000000 0.0000000e+0 0.0000000e+0
vn 0.0000000e+0 1.00000000 0.0000000e+0
vn 0.0000000e+0 0.0000000e+0 1.00000000
vn 1.00000000 0.0000000e+0 0.0000000e+0
vn 0.0000000e+0 0.0000000e+0 1.00000000
vn 0.0000000e+0 1.00000000 0.0000000e+0
vn 0.0000000e+0 0.0000000e+0 1.00000000
vn 0.0000000e+0 1.00000000 0.0000000e+0
vn -1.00000000 0.0000000e+0 0.0000000e+0
vn 1.00000000 0.0000000e+0 0.0000000e+0
vn 0.0000000e+0 0.0000000e+0 1.00000000
vn 1.00000000 0.0000000e+0 0.0000000e+0
vn 0.0000000e+0 1.00000000 0.0000000e+0
vn 1.00000000 0.0000000e+0 0.0000000e+0
vn 0.0000000e+0 1.00000000 0.0000000e+0
vn 1.00000000 0.0000000e+0 0.0000000e+0
vn 0.0000000e+0 0.0000000e+0 1.00000000
vn 0.0000000e+0 0.0000000e+0 1.00000000
vn 0.0000000e+0 1.00000000 0.0000000e+0
vn -1.00000000 0.0000000e+0 0.0000000e+0
vn 0.0000000e+0 1.00000000 0.0000000e+0
vn 0.0000000e+0 0.0000000e+0 1.00000000
vn -1.00000000 0.0000000e+0 0.0000000e+0
g board_edge_A
usemtl chess_figures
s 1
f 3/3/7 6/9/17 5/11/15 1/5/2
f 7/1/20 9/6/27 14/6/42 16/1/48
f 8/4/23 15/2/45 13/8/38 10/10/30
f 11/7/31 14/6/43 13/7/39
s 2
f 2/5/6 7/1/21 16/1/50 12/2/36 15/2/47 8/3/24 3/3/9 1/5/3
f 5/11/13 6/9/16 10/9/28 13/7/37 14/6/41 9/6/25 4/11/10
s 3
f 2/5/5 4/11/12 9/6/26 7/1/19
f 3/3/8 8/3/22 10/9/29 6/9/18
f 13/8/40 15/2/46 12/2/35 11/8/33
s 4
f 1/5/1 5/11/14 4/11/11 2/5/4
f 12/2/34 16/1/49 14/6/44 11/8/32
o board_tile_A
#12 vertices, 10 faces
v -0.50000000 0.0000000e+0 -0.50000000
v -0.50000000 0.0000000e+0 0.50000000
v -0.45000000 1.00000000 -0.45000000
v -0.45000000 1.00000000 0.45000000
v 0.50000000 0.0000000e+0 -0.50000000
v 0.50000000 0.0000000e+0 0.50000000
v 0.45000000 1.00000000 -0.45000000
v 0.45000000 1.00000000 0.45000000
v 0.50000000 0.80000000 0.50000000
v 0.50000000 0.80000000 -0.50000000
v -0.50000000 0.80000000 0.50000000
v -0.50000000 0.80000000 -0.50000000
vt 0.66365278 0.44212778
vt 0.66365278 0.47892778
vt 0.66595278 0.48812778
vt 0.70735278 0.48812778
vt 0.70965278 0.44212778
vt 0.70965278 0.47892778
vn 0.0000000e+0 -1.00000000 0.0000000e+0
vn -1.00000000 0.0000000e+0 0.0000000e+0
vn 0.0000000e+0 0.0000000e+0 -1.00000000
vn 0.0000000e+0 -1.00000000 0.0000000e+0
vn 0.0000000e+0 0.0000000e+0 1.00000000
vn -1.00000000 0.0000000e+0 0.0000000e+0
vn 0.0000000e+0 1.00000000 0.0000000e+0
vn 0.0000000e+0 0.24253563 -0.97014250
vn -0.97014250 0.24253563 0.0000000e+0
vn 0.0000000e+0 1.00000000 0.0000000e+0
vn 0.0000000e+0 0.24253563 0.97014250
vn -0.97014250 0.24253563 0.0000000e+0
vn 0.0000000e+0 -1.00000000 0.0000000e+0
vn 1.00000000 0.0000000e+0 0.0000000e+0
vn 0.0000000e+0 0.0000000e+0 -1.00000000
vn 0.0000000e+0 -1.00000000 0.0000000e+0
vn 0.0000000e+0 0.0000000e+0 1.00000000
vn 1.00000000 0.0000000e+0 0.0000000e+0
vn 0.0000000e+0 1.00000000 0.0000000e+0
vn 0.0000000e+0 0.24253563 -0.97014250
vn 0.97014250 0.24253563 0.0000000e+0
vn 0.0000000e+0 1.00000000 0.0000000e+0
vn 0.0000000e+0 0.24253563 0.97014250
vn 0.97014250 0.24253563 0.0000000e+0
vn 0.0000000e+0 0.0000000e+0 1.00000000
vn 1.00000000 0.0000000e+0 0.0000000e+0
vn 0.0000000e+0 0.24253563 0.97014250
vn 0.97014250 0.24253563 0.0000000e+0
vn 0.0000000e+0 0.24253563 -0.97014250
vn 1.00000000 0.0000000e+0 0.0000000e+0
vn 0.0000000e+0 0.0000000e+0 -1.00000000
vn 0.97014250 0.24253563 0.0000000e+0
vn 0.0000000e+0 0.0000000e+0 1.00000000
vn -1.00000000 0.0000000e+0 0.0000000e+0
vn 0.0000000e+0 0.24253563 0.97014250
vn -0.97014250 0.24253563 0.0000000e+0
vn 0.0000000e+0 0.24253563 -0.97014250
vn -1.00000000 0.0000000e+0 0.0000000e+0
vn 0.0000000e+0 0.0000000e+0 -1.00000000
vn -0.97014250 0.24253563 0.0000000e+0
g board_tile_A
usemtl chess_figures
s 1
f 18/12/56 27/13/84 28/17/88 17/16/52
f 20/14/61 27/13/85 25/13/77 24/14/73
f 21/16/64 26/17/80 25/13/76 22/12/68
f 23/15/70 26/17/79 28/17/87 19/15/58
s 2
f 18/12/55 22/12/67 25/13/75 27/13/83
f 20/14/60 24/14/72 23/15/69 19/15/57
f 28/17/89 26/17/81 21/16/65 17/16/53
s 3
f 17/16/51 21/16/63 22/12/66 18/12/54
f 19/15/59 28/17/90 27/13/86 20/14/62
f 24/14/74 25/13/78 26/17/82 23/15/71
o board_corner_A
#36 vertices, 32 faces
v -0.50000000 0.0000000e+0 -0.50000000
v -0.50000000 0.0000000e+0 0.50000000
v 0.50000000 0.0000000e+0 -0.50000000
v 0.50000000 0.0000000e+0 0.50000000
v 0.50000000 0.80000000 -0.50000000
v 1.50000000 0.0000000e+0 0.50000000
v 1.50000000 0.0000000e+0 -0.50000000
v 1.50000000 0.80000000 -0.50000000
v -0.50000000 0.0000000e+0 -1.50000000
v 0.50000000 0.80000000 -1.50000000
v 0.50000000 0.0000000e+0 -1.50000000
v 0.50000000 0.68588485 0.50000000
v 0.50000000 0.80000000 0.23670929
v -0.50000000 0.68588485 0.50000000
v -0.23670929 0.80000000 -0.50000000
v -0.50000000 0.68588485 -0.50000000
v 1.50000000 0.68588485 0.50000000
v 1.50000000 0.80000000 0.23670929
v -0.23670929 0.80000000 -1.50000000
v -0.50000000 0.68588485 -1.50000000
v -0.23670929 0.80000000 0.23670929
v 1.50000000 0.73886677 0.37049512
v -0.37049512 0.73886677 0.37049512
v -0.37049512 0.73886677 -1.50000000
v 0.50000000 0.73886677 0.37049512
v -0.37049512 0.73886677 -0.50000000
v 1.50000000 0.73886677 0.23670929
v 1.50000000 0.68588485 0.37049512
v -0.23670929 0.73886677 0.23670929
v -0.37049512 0.68588485 0.37049512
v -0.37049512 0.68588485 -1.50000000
v -0.23670929 0.73886677 -1.50000000
v 0.50000000 0.73886677 0.23670929
v 0.50000000 0.68588485 0.37049512
v -0.37049512 0.68588485 -0.50000000
v -0.23670929 0.73886677 -0.50000000
vt 0.64418307 0.47997489
vt 0.64418307 0.44454208
vt 0.64949277 0.47997489
vt 0.64949277 0.48271193
vt 0.64949277 0.48271193
vt 0.65497799 0.48271193
vt 0.65497799 0.48271193
vt 0.65497799 0.48587008
vt 0.68518307 0.47997489
vt 0.68518307 0.48271193
vt 0.68518307 0.48587008
vt 0.68518307 0.48587008
vt 0.68518307 0.44454208
vt 0.72618307 0.47997489
vt 0.72618307 0.48271193
vt 0.72618307 0.48271193
vt 0.72618307 0.48587008
vt 0.72618307 0.48587008
vt 0.72618307 0.44454208
vn 0.0000000e+0 -1.00000000 0.0000000e+0
vn -1.00000000 0.0000000e+0 0.0000000e+0
vn -1.00000000 0.0000000e+0 0.0000000e+0
vn 0.0000000e+0 -1.00000000 0.0000000e+0
vn 0.0000000e+0 -1.00000000 0.0000000e+0
vn 0.0000000e+0 0.0000000e+0 1.00000000
vn -1.00000000 0.0000000e+0 0.0000000e+0
vn 0.0000000e+0 -1.00000000 0.0000000e+0
vn 0.0000000e+0 -1.00000000 0.0000000e+0
vn 0.0000000e+0 0.0000000e+0 -1.00000000
vn 1.00000000 0.0000000e+0 0.0000000e+0
vn 0.0000000e+0 -1.00000000 0.0000000e+0
vn 0.0000000e+0 -1.00000000 0.0000000e+0
vn 0.0000000e+0 0.0000000e+0 1.00000000
vn 0.0000000e+0 -1.00000000 0.0000000e+0
vn 0.0000000e+0 0.0000000e+0 1.00000000
vn 0.0000000e+0 1.00000000 0.0000000e+0
vn 0.0000000e+0 0.0000000e+0 -1.00000000
vn 0.0000000e+0 1.00000000 0.0000000e+0
vn 0.0000000e+0 1.00000000 0.0000000e+0
vn 1.00000000 0.0000000e+0 0.0000000e+0
vn 1.00000000 2.8706528e-16 0.0000000e+0
vn 0.0000000e+0 -1.00000000 0.0000000e+0
vn 0.0000000e+0 0.0000000e+0 1.00000000
vn 1.00000000 2.8706528e-16 0.0000000e+0
vn 0.0000000e+0 -1.00000000 0.0000000e+0
vn 0.0000000e+0 0.0000000e+0 -1.00000000
vn 1.00000000 2.8706528e-16 0.0000000e+0
vn 0.0000000e+0 0.0000000e+0 -1.00000000
vn 0.0000000e+0 1.00000000 0.0000000e+0
vn 7.1766319e-17 0.0000000e+0 -1.00000000
vn -1.00000000 0.0000000e+0 0.0000000e+0
vn 0.0000000e+0 -1.00000000 0.0000000e+0
vn 7.1766319e-17 0.0000000e+0 -1.00000000
vn 0.0000000e+0 1.00000000 0.0000000e+0
vn 1.00000000 0.0000000e+0 0.0000000e+0
vn 7.1766319e-17 0.0000000e+0 -1.00000000
vn 1.00000000 0.0000000e+0 0.0000000e+0
vn 0.0000000e+0 -1.00000000 0.0000000e+0
vn 0.0000000e+0 0.0000000e+0 1.00000000
vn 0.0000000e+0 0.0000000e+0 1.00000000
vn 0.0000000e+0 1.00000000 0.0000000e+0
vn 0.0000000e+0 1.00000000 0.0000000e+0
vn 0.0000000e+0 1.00000000 0.0000000e+0
vn 0.0000000e+0 1.00000000 0.0000000e+0
vn 0.0000000e+0 0.0000000e+0 1.00000000
vn 0.0000000e+0 0.0000000e+0 1.00000000
vn 0.0000000e+0 0.0000000e+0 1.00000000
vn -1.00000000 0.0000000e+0 0.0000000e+0
vn 0.0000000e+0 1.00000000 0.0000000e+0
vn 0.0000000e+0 1.00000000 0.0000000e+0
vn 0.0000000e+0 1.00000000 0.0000000e+0
vn 0.0000000e+0 1.00000000 0.0000000e+0
vn -1.00000000 0.0000000e+0 0.0000000e+0
vn -1.00000000 0.0000000e+0 0.0000000e+0
vn -1.00000000 0.0000000e+0 0.0000000e+0
vn -1.00000000 0.0000000e+0 0.0000000e+0
vn 0.0000000e+0 1.00000000 0.0000000e+0
vn 0.0000000e+0 1.00000000 0.0000000e+0
vn 1.00000000 2.8706528e-16 0.0000000e+0
vn 0.0000000e+0 0.0000000e+0 1.00000000
vn 0.0000000e+0 1.00000000 0.0000000e+0
vn 1.00000000 2.8706528e-16 0.0000000e+0
vn 0.0000000e+0 1.00000000 0.0000000e+0
vn 0.0000000e+0 0.0000000e+0 1.00000000
vn 7.1766319e-17 0.0000000e+0 -1.00000000
vn 0.0000000e+0 1.00000000 0.0000000e+0
vn -1.00000000 0.0000000e+0 0.0000000e+0
vn 7.1766319e-17 0.0000000e+0 -1.00000000
vn -1.00000000 0.0000000e+0 0.0000000e+0
vn 0.0000000e+0 1.00000000 0.0000000e+0
vn 0.0000000e+0 1.00000000 0.0000000e+0
vn -1.00000000 0.0000000e+0 0.0000000e+0
vn 0.0000000e+0 0.0000000e+0 1.00000000
vn 1.00000000 0.0000000e+0 0.0000000e+0
vn 0.0000000e+0 0.0000000e+0 1.00000000
vn 0.0000000e+0 1.00000000 0.0000000e+0
vn 0.0000000e+0 1.00000000 0.0000000e+0
vn -1.00000000 0.0000000e+0 0.0000000e+0
vn 0.0000000e+0 0.0000000e+0 1.00000000
vn 0.0000000e+0 1.00000000 0.0000000e+0
vn 0.0000000e+0 1.00000000 0.0000000e+0
vn 0.0000000e+0 0.0000000e+0 -1.00000000
vn -1.00000000 0.0000000e+0 0.0000000e+0
vn 0.0000000e+0 0.0000000e+0 1.00000000
vn 0.0000000e+0 0.0000000e+0 1.00000000
vn 0.0000000e+0 1.00000000 0.0000000e+0
vn 0.0000000e+0 1.00000000 0.0000000e+0
vn 0.0000000e+0 1.00000000 0.0000000e+0
vn -1.00000000 0.0000000e+0 0.0000000e+0
vn 0.0000000e+0 1.00000000 0.0000000e+0
vn -1.00000000 0.0000000e+0 0.0000000e+0
vn 1.00000000 2.8706528e-16 0.0000000e+0
vn 0.0000000e+0 0.0000000e+0 1.00000000
vn 1.00000000 0.0000000e+0 0.0000000e+0
vn 0.0000000e+0 1.00000000 0.0000000e+0
vn 1.00000000 2.8706528e-16 0.0000000e+0
vn 0.0000000e+0 1.00000000 0.0000000e+0
vn 1.00000000 0.0000000e+0 0.0000000e+0
vn 0.0000000e+0 0.0000000e+0 1.00000000
vn -1.00000000 0.0000000e+0 0.0000000e+0
vn 0.0000000e+0 0.0000000e+0 1.00000000
vn 0.0000000e+0 1.00000000 0.0000000e+0
vn 0.0000000e+0 1.00000000 0.0000000e+0
vn 0.0000000e+0 1.00000000 0.0000000e+0
vn 0.0000000e+0 1.00000000 0.0000000e+0
vn -1.00000000 0.0000000e+0 0.0000000e+0
vn 0.0000000e+0 0.0000000e+0 1.00000000
vn 7.1766319e-17 0.0000000e+0 -1.00000000
vn 0.0000000e+0 1.00000000 0.0000000e+0
vn 0.0000000e+0 0.0000000e+0 -1.00000000
vn -1.00000000 0.0000000e+0 0.0000000e+0
vn 7.1766319e-17 0.0000000e+0 -1.00000000
vn -1.00000000 0.0000000e+0 0.0000000e+0
vn 0.0000000e+0 1.00000000 0.0000000e+0
vn 0.0000000e+0 0.0000000e+0 -1.00000000
vn 0.0000000e+0 0.0000000e+0 1.00000000
vn 0.0000000e+0 0.0000000e+0 1.00000000
vn 0.0000000e+0 1.00000000 0.0000000e+0
vn 0.0000000e+0 1.00000000 0.0000000e+0
vn 0.0000000e+0 1.00000000 0.0000000e+0
vn 0.0000000e+0 1.00000000 0.0000000e+0
vn 0.0000000e+0 0.0000000e+0 1.00000000
vn 0.0000000e+0 0.0000000e+0 1.00000000
vn 0.0000000e+0 1.00000000 0.0000000e+0
vn 0.0000000e+0 1.00000000 0.0000000e+0
vn -1.00000000 0.0000000e+0 0.0000000e+0
vn -1.00000000 0.0000000e+0 0.0000000e+0
vn -1.00000000 0.0000000e+0 0.0000000e+0
vn -1.00000000 0.0000000e+0 0.0000000e+0
vn 0.0000000e+0 1.00000000 0.0000000e+0
vn 0.0000000e+0 1.00000000 0.0000000e+0
g board_corner_A
usemtl chess_figures
s 1
f 30/19/96 32/30/104 40/26/130 42/18/138
f 31/30/99 35/36/116 34/36/113 32/30/105
f 33/28/107 43/25/142 49/25/162 41/28/134
f 38/28/124 39/30/127 37/19/121 48/18/159 59/20/199 60/23/203 47/25/156
f 40/26/132 45/31/152 56/31/188 62/26/211
f 44/18/149 42/18/140 58/20/195 63/20/216
f 51/22/170 58/20/198 62/26/213 53/27/175
f 55/33/186 61/27/210 53/27/178 50/33/167
f 57/23/193 64/23/221 54/21/179 51/21/168
f 59/20/202 63/20/218 54/21/182 52/21/174
s 2
f 29/19/91 31/30/98 32/30/103 30/19/95
f 31/30/101 39/30/128 38/28/126 33/28/111
f 35/36/115 36/34/118 46/34/153 55/32/183 56/31/187 45/31/150 34/36/112
f 51/22/171 53/27/177 61/27/209 57/24/194
f 52/21/173 60/23/206 59/20/201
f 53/27/176 62/26/214 56/31/190 50/33/166
f 54/21/180 63/20/217 58/20/197 51/21/169
f 60/23/204 64/23/220 43/25/145 47/25/158
f 62/26/212 58/20/196 42/18/141 40/26/133
f 63/20/215 59/20/200 48/18/161 44/18/148
s 3
f 32/30/106 34/36/114 45/31/151 40/26/131
f 33/28/108 36/34/119 35/36/117 31/30/100
f 44/18/147 48/18/160 37/19/122 29/19/93
f 47/25/157 43/25/143 33/28/110 38/28/125
f 49/25/164 57/24/192 61/27/208 41/29/137
f 50/32/165 56/31/189 55/32/185
f 64/23/222 60/23/205 52/21/172 54/21/181
s 4
f 29/19/94 37/19/123 39/30/129 31/30/102
f 30/19/97 42/18/139 44/18/146 29/19/92
f 41/29/136 61/27/207 55/33/184 46/35/155
f 43/25/144 64/23/219 57/23/191 49/25/163
s 5
f 33/28/109 41/28/135 46/34/154 36/34/120
